<svg width="40" height="40" viewBox="0 0 40 40" fill="none" xmlns="http://www.w3.org/2000/svg">
  <defs>
    <linearGradient id="bg" x1="0" y1="0" x2="40" y2="40" gradientUnits="userSpaceOnUse">
      <stop stop-color="#4f46e5"/>
      <stop offset="1" stop-color="#7c3aed"/>
    </linearGradient>
    <linearGradient id="acc" x1="0" y1="0" x2="0" y2="1">
      <stop stop-color="#38bdf8"/>
      <stop offset="1" stop-color="#818cf8"/>
    </linearGradient>
    <radialGradient id="glow" cx="50%" cy="30%" r="60%">
      <stop stop-color="white" stop-opacity="0.15"/>
      <stop offset="1" stop-color="white" stop-opacity="0"/>
    </radialGradient>
  </defs>

  <!-- Background -->
  <rect width="40" height="40" rx="9" fill="url(#bg)"/>
  <rect width="40" height="40" rx="9" fill="url(#glow)"/>
  <rect width="39" height="39" x="0.5" y="0.5" rx="8.5" stroke="white" stroke-opacity="0.12"/>

  <!-- Left page -->
  <path d="M20 11.5 C17 10.5 12.5 11 9.5 12.5 L9.5 27.5 C12.5 26 17 25.5 20 26.5 Z" fill="white" fill-opacity="0.95"/>

  <!-- Right page -->
  <path d="M20 11.5 C23 10.5 27.5 11 30.5 12.5 L30.5 27.5 C27.5 26 23 25.5 20 26.5 Z" fill="white" fill-opacity="0.55"/>

  <!-- Spine -->
  <line x1="20" y1="11" x2="20" y2="27.5" stroke="white" stroke-width="1.3" stroke-linecap="round"/>

  <!-- Left page lines -->
  <line x1="12" y1="17" x2="18.2" y2="16.2" stroke="white" stroke-opacity="0.35" stroke-width="1" stroke-linecap="round"/>
  <line x1="12" y1="20" x2="18.2" y2="19.3" stroke="white" stroke-opacity="0.35" stroke-width="1" stroke-linecap="round"/>
  <line x1="12" y1="23" x2="17" y2="22.4" stroke="white" stroke-opacity="0.25" stroke-width="1" stroke-linecap="round"/>

  <!-- Arrow stem -->
  <line x1="25.5" y1="25" x2="25.5" y2="18.5" stroke="url(#acc)" stroke-width="1.8" stroke-linecap="round"/>

  <!-- Arrow head -->
  <path d="M23 21 L25.5 18 L28 21" stroke="url(#acc)" stroke-width="1.8" stroke-linecap="round" stroke-linejoin="round"/>
</svg>
